<svg width="24" height="24" viewBox="0 0 24 24" fill="none" xmlns="http://www.w3.org/2000/svg">
<mask id="path-1-inside-1_114_39" fill="white">
<path fill-rule="evenodd" clip-rule="evenodd" d="M13.2061 4.09113C11.0481 6.07479 10.4733 9.35568 12 12C13.5267 14.6443 16.6554 15.7869 19.4523 14.9098C18.8151 16.5449 17.638 17.9825 16 18.9282C12.1736 21.1373 7.28092 19.8263 5.07178 16C2.86264 12.1736 4.17364 7.28092 7.99998 5.07178C9.638 4.12607 11.4714 3.82546 13.2061 4.09113Z"/>
</mask>
<path fill-rule="evenodd" clip-rule="evenodd" d="M13.2061 4.09113C11.0481 6.07479 10.4733 9.35568 12 12C13.5267 14.6443 16.6554 15.7869 19.4523 14.9098C18.8151 16.5449 17.638 17.9825 16 18.9282C12.1736 21.1373 7.28092 19.8263 5.07178 16C2.86264 12.1736 4.17364 7.28092 7.99998 5.07178C9.638 4.12607 11.4714 3.82546 13.2061 4.09113Z" fill="#2D2D2D"/>
<path d="M13.2061 4.09113L14.2889 5.26909L16.7422 3.01403L13.4483 2.50957L13.2061 4.09113ZM19.4523 14.9098L20.9431 15.4908L22.1532 12.386L18.9736 13.3831L19.4523 14.9098ZM13.3856 11.2C12.2416 9.21848 12.6706 6.75662 14.2889 5.26909L12.1233 2.91317C9.42555 5.39295 8.70498 9.49288 10.6143 12.8L13.3856 11.2ZM18.9736 13.3831C16.8762 14.0409 14.5296 13.1815 13.3856 11.2L10.6143 12.8C12.5237 16.1071 16.4346 17.533 19.9311 16.4365L18.9736 13.3831ZM17.9615 14.3288C17.4516 15.6373 16.5118 16.7852 15.2 17.5425L16.8 20.3138C18.7643 19.1797 20.1785 17.4526 20.9431 15.4908L17.9615 14.3288ZM15.2 17.5425C12.1389 19.3099 8.22473 18.2611 6.45742 15.2L3.68614 16.8C6.3371 21.3916 12.2084 22.9648 16.8 20.3138L15.2 17.5425ZM6.45742 15.2C4.69011 12.1389 5.73891 8.22473 8.79998 6.45742L7.19998 3.68614C2.60837 6.3371 1.03517 12.2084 3.68614 16.8L6.45742 15.2ZM8.79998 6.45742C10.1117 5.70007 11.5758 5.4601 12.9639 5.67269L13.4483 2.50957C11.3671 2.19083 9.16425 2.55207 7.19998 3.68614L8.79998 6.45742Z" fill="#2D2D2D" mask="url(#path-1-inside-1_114_39)"/>
</svg>
