<svg width="24" height="24" viewBox="0 0 24 24" fill="none" xmlns="http://www.w3.org/2000/svg">
<path d="M16.6296 12C16.6296 14.5569 14.5569 16.6296 12 16.6296C9.44314 16.6296 7.37038 14.5569 7.37038 12C7.37038 9.44314 9.44314 7.37038 12 7.37038C14.5569 7.37038 16.6296 9.44314 16.6296 12Z" fill="#2D2D2D" stroke="#2D2D2D" stroke-width="1.85185"/>
<path d="M12 2L12 4.22222" stroke="#2D2D2D" stroke-width="1.85185" stroke-linecap="round"/>
<path d="M19.071 4.92892L17.4997 6.50027" stroke="#2D2D2D" stroke-width="1.85185" stroke-linecap="round"/>
<path d="M6.50037 17.4997L4.92902 19.0711" stroke="#2D2D2D" stroke-width="1.85185" stroke-linecap="round"/>
<path d="M12 19.7778L12 22" stroke="#2D2D2D" stroke-width="1.85185" stroke-linecap="round"/>
<path d="M2 12L4.22222 12" stroke="#2D2D2D" stroke-width="1.85185" stroke-linecap="round"/>
<path d="M4.92908 4.92896L6.50043 6.5003" stroke="#2D2D2D" stroke-width="1.85185" stroke-linecap="round"/>
<path d="M17.4998 17.4998L19.0711 19.0711" stroke="#2D2D2D" stroke-width="1.85185" stroke-linecap="round"/>
<path d="M19.7778 12L22.0001 12" stroke="#2D2D2D" stroke-width="1.85185" stroke-linecap="round"/>
</svg>
