<svg width="195" height="163" viewBox="0 0 195 163" fill="none" xmlns="http://www.w3.org/2000/svg">
<path d="M4.03076 142.91C5.34563 134.023 12.6033 127.032 13.9458 117.96C14.3688 115.101 14.26 111.973 12.2112 109.511C10.7541 107.771 8.4849 108.515 8.64121 107.459C8.70557 107.024 9.05307 106.821 9.49726 106.823L15.4629 107.706C18.7565 108.193 21.0653 110.186 22.739 113.037C25.206 111.815 28.3334 109.991 31.2541 110.424C40.6998 111.821 42.7711 124.003 41.5481 132.268C40.3988 140.036 36.8487 146.432 28.273 145.163C26.6573 144.924 21.9158 142.635 20.1156 140.21C20.1733 141.107 20.0607 142.297 19.9228 143.229C19.2332 147.89 16.1108 152.254 10.8287 151.473C6.4787 150.829 3.29517 147.881 4.03076 142.91ZM20.6184 133.807C20.3242 135.795 20.6308 138.444 22.9301 138.784C25.54 139.171 26.0737 137.281 26.6349 135.205L26.6716 134.956L27.6951 131.044C28.5553 127.805 30.6469 125.257 31.1618 121.777C31.6491 118.483 30.1799 113.821 26.3892 113.26C25.4571 113.122 23.563 113.477 23.1581 114.496C23.9159 117.53 23.6701 120.478 23.2012 123.647C22.6863 127.127 21.1242 130.389 20.6184 133.807Z" fill="#3B21FD"/>
<path d="M46.1626 113.779C45.09 112.282 44.3753 110.552 44.0683 108.626C43.8364 107.17 43.8545 105.631 44.179 104.087C45.4617 98.0884 49.6403 93.7353 55.9758 92.7256C60.2138 92.0502 65.7972 94.5842 66.534 99.2074C66.7455 100.534 66.2963 101.572 64.9265 101.79C63.5566 102.008 62.278 101.422 60.8653 101.647C58.5109 102.022 55.0452 105.34 54.3025 107.565C54.004 108.447 53.9128 109.252 54.0561 110.151C54.4176 112.419 56.7862 114.061 58.9694 113.713C63.2074 113.038 65.9423 109.266 66.8539 105.346C67.089 104.342 67.0723 103.687 67.1586 102.576C67.1878 102.483 67.2169 102.391 67.3026 102.377C67.3454 102.37 67.4378 102.399 67.4651 102.571C68.1678 106.98 66.3963 111.564 62.8915 114.361C61.0638 115.838 58.9488 116.614 56.5516 116.996C52.3136 117.671 48.8226 117.525 46.1626 113.779ZM52.0452 100.287C52.3386 102.128 52.8751 103.842 53.514 106.199C54.7959 104.326 55.7997 103.464 56.6478 102.451C57.8626 100.984 59.0062 98.5197 58.6855 96.5077C58.4331 94.9238 56.9665 93.709 55.2114 93.9887C52.2149 94.4663 51.67 97.933 52.0452 100.287Z" fill="#3B21FD"/>
<path d="M76.5262 84.9854C76.5673 83.9893 78.1007 78.3691 79.9793 73.8478C80.5562 72.4833 81.1023 70.8139 81.1774 68.9948L81.1952 68.5617C77.2539 68.3991 77.2124 68.354 77.2124 68.354C77.0878 68.2187 77.0499 68.0869 77.0588 67.8704C77.0713 67.5672 77.1633 67.4408 77.3004 67.273L81.3283 67.4392C81.3694 66.443 81.1721 64.9164 80.7801 63.9024C80.6229 63.5054 79.7125 61.3854 79.3893 60.808C79.3098 60.6312 79.1111 60.1892 79.1236 59.886C79.1308 59.7127 79.1776 59.6279 79.3942 59.6368C79.8706 59.6565 80.3488 59.6328 80.8253 59.6525C81.3017 59.6722 81.7763 59.7351 82.2907 59.8865C83.4458 60.2812 84.7076 61.2444 85.4282 62.7058C86.2319 64.2574 87.0758 66.9387 87.3052 67.6858L90.6402 67.8233C90.7684 67.872 90.8965 67.9207 90.8822 68.2672C90.8679 68.6137 90.7272 68.8682 90.5937 68.9494L87.4753 68.8208C87.47 68.9507 87.4851 70.6867 87.4655 71.1632C87.3868 73.0688 87.155 75.5322 87.0693 77.6112C86.996 79.3869 87.0147 81.0363 87.3183 82.0901C87.6978 83.4073 87.9023 84.7606 87.8505 86.0167C87.7325 88.8752 86.3764 91.2488 82.5218 91.0898L81.3524 91.0415C80.0963 90.9897 79.1453 90.9071 78.4719 90.4021C76.4069 88.9285 76.4869 85.9383 76.5262 84.9854Z" fill="#3B21FD"/>
<path d="M105.204 90.4767C103.332 84.8788 103.759 77.6951 110.149 75.5588C114.05 74.2543 116.446 75.9678 119.766 77.4354C119.898 77.2656 119.916 77.1336 120.083 74.0602L120.269 70.4778C120.268 69.7237 120.116 68.3286 119.927 67.7632C119.019 65.0491 116.152 63.0532 113.324 63.9984C110.214 65.0382 109.634 69.1301 108.58 71.6197C107.752 73.6567 104.627 78.2222 102.252 79.0162C102.026 79.0918 101.931 78.9977 101.875 78.828C101.724 78.3757 101.836 77.7722 101.873 77.3197C102.04 74.0578 103.056 71.4551 101.978 68.2321L101.846 67.8362C101.676 67.3273 101.581 66.8561 102.278 66.4972C117.281 61.3553 117.338 61.3364 117.338 61.3364L117.621 61.2418C118.129 61.0717 118.997 60.8447 119.713 60.9194C124.748 61.4993 127.974 64.5695 129.354 68.6973C130.13 71.0156 130.283 73.5419 130.417 76.0116C130.513 77.6141 130.42 79.2168 130.949 80.8C131.876 83.5707 135.532 82.4738 136.421 85.1314C137.29 87.7324 135.878 89.9019 133.277 90.7716C131.807 91.2631 131.166 91.6031 130.149 91.9434C127.717 92.7563 125.304 92.8716 121.851 89.4999C120.119 92.405 118.632 95.6681 115.183 96.8213C110.358 97.9947 106.603 94.661 105.204 90.4767ZM114.097 83.9828C114.569 85.3964 115.647 88.2424 117.626 87.5807C120.396 86.6543 119.79 82.9595 119.429 80.5654C119.41 80.3203 119.354 80.1507 119.297 79.9811C118.711 78.2282 116.769 78.0603 115.317 78.4198C113.112 79.1571 113.549 82.343 114.097 83.9828Z" fill="#3B21FD"/>
<path d="M138.948 58.7022C136.173 58.3494 134.352 54.0164 134.625 51.872C134.961 49.2231 135.598 46.2278 142.815 30.2898C143.877 27.9894 144.41 25.814 144.722 23.3543C145.348 18.4349 144.59 14.8137 139.523 13.3365C139.334 13.3124 139.239 13.0441 139.264 12.8549C139.288 12.6657 139.367 12.5476 139.619 12.5796L149.269 13.8062C149.647 13.8543 150.379 14.6523 150.599 14.9366C153.832 18.7443 154.555 23.6428 153.946 28.4361C152.949 33.757 151.105 37.1756 150.696 40.3921C150.335 43.2302 151.157 46.3468 151.317 49.123C151.386 50.0931 151.074 52.0402 151.017 52.9943L150.985 53.2465C150.568 56.5262 147.967 59.8486 144.245 59.3756L138.948 58.7022Z" fill="#3B21FD"/>
<path d="M169.088 42.7407C168.947 42.4122 168.892 42.0699 168.843 41.7704C168.566 40.0587 169.511 39.1152 170.623 38.935C171.008 38.8726 171.414 38.9386 171.827 39.0474C175.257 40.1605 176.804 44.8282 181.04 44.142C182.495 43.9064 183.775 42.8646 183.512 41.2386C183.29 39.8693 181.713 38.8074 180.367 38.6302L174.89 37.8926C172.96 37.6344 170.712 36.769 169.314 35.4585C168.334 34.5632 167.835 33.1071 167.627 31.8234C166.809 26.7742 170.828 23.664 175.278 22.9431C177.29 22.6173 180.048 22.5658 181.824 23.7711C182.066 23.9076 183.259 24.7682 183.557 24.9834C184.914 26.0371 185.511 26.2038 187.17 26.6817C187.312 26.7465 187.389 26.9535 187.424 27.1674C187.477 28.0371 186.054 29.0141 185.241 29.1458C180.962 29.8389 179.083 23.1172 174.676 23.8312C173.178 24.0738 172.238 25.5874 172.473 27.0423C172.702 28.4544 174.181 29.1809 175.449 29.4147L183.565 30.9981C185.516 31.3847 188.68 33.024 189.484 35.0017C189.808 35.6516 190.005 36.3224 190.123 37.0499C190.719 40.7298 188.59 44.939 183.156 45.8193L180.674 46.2213C177.08 46.8035 173.002 47.1128 170.214 44.2709C169.902 43.9701 169.25 43.1975 169.088 42.7407Z" fill="#3B21FD"/>
</svg>
