<svg width="34" height="34" viewBox="0 0 34 34" fill="none" xmlns="http://www.w3.org/2000/svg">
<g clip-path="url(#clip0_113_894)">
<circle cx="17.2865" cy="11.3305" r="1.53081" fill="#2D2D2D"/>
<circle cx="17.2865" cy="22.5564" r="1.53081" fill="#2D2D2D"/>
<circle cx="12.388" cy="19.6989" r="1.53081" fill="#2D2D2D"/>
<circle cx="12.388" cy="14.188" r="1.53081" fill="#2D2D2D"/>
<circle cx="22.1851" cy="14.188" r="1.53081" fill="#2D2D2D"/>
<circle cx="22.1851" cy="19.6989" r="1.53081" fill="#2D2D2D"/>
</g>
<g clip-path="url(#clip1_113_894)">
<circle cx="13.3574" cy="10.1381" r="2.14313" transform="rotate(-30 13.3574 10.1381)" fill="#2D2D2D"/>
<circle cx="21.2155" cy="23.7489" r="2.14313" transform="rotate(-30 21.2155 23.7489)" fill="#2D2D2D"/>
<circle cx="13.2761" cy="23.7133" r="2.14313" transform="rotate(-30 13.2761 23.7133)" fill="#2D2D2D"/>
<circle cx="9.41842" cy="17.0317" r="2.14313" transform="rotate(-30 9.41842 17.0317)" fill="#2D2D2D"/>
<circle cx="21.2968" cy="10.1737" r="2.14313" transform="rotate(-30 21.2968 10.1737)" fill="#2D2D2D"/>
<circle cx="25.1545" cy="16.8553" r="2.14313" transform="rotate(-30 25.1545 16.8553)" fill="#2D2D2D"/>
</g>
<g clip-path="url(#clip2_113_894)">
<circle cx="17.2864" cy="5.9421" r="3.00038" fill="#2D2D2D"/>
<circle cx="17.2864" cy="27.9449" r="3.00038" fill="#2D2D2D"/>
<circle cx="7.6852" cy="22.3442" r="3.00038" fill="#2D2D2D"/>
<circle cx="7.6852" cy="11.5428" r="3.00038" fill="#2D2D2D"/>
<circle cx="26.8876" cy="11.5428" r="3.00038" fill="#2D2D2D"/>
<circle cx="26.8876" cy="22.3442" r="3.00038" fill="#2D2D2D"/>
</g>
<defs>
<clipPath id="clip0_113_894">
<rect width="12.8588" height="14.2875" fill="white" transform="translate(10.8572 9.79968)"/>
</clipPath>
<clipPath id="clip1_113_894">
<rect width="18.0023" height="20.0026" fill="white" transform="translate(4.4906 12.7827) rotate(-30)"/>
</clipPath>
<clipPath id="clip2_113_894">
<rect width="25.2032" height="28.0036" fill="white" transform="translate(4.68494 2.94171)"/>
</clipPath>
</defs>
</svg>
