<svg width="66" height="69" viewBox="0 0 66 69" fill="none" xmlns="http://www.w3.org/2000/svg">
<path d="M32.9998 2.35703L32.9998 30.6413" stroke="white" stroke-width="2" stroke-linecap="round"/>
<path d="M23 21.2132L33 31.2132L43 21.2132" stroke="white" stroke-width="2" stroke-linecap="round"/>
<rect x="6" y="37" width="54" height="26" rx="13" stroke="white" stroke-width="2"/>
<path d="M16.3579 44.1574H21.2393C23.9894 44.1574 25.2269 46.1169 25.2269 48.0763C25.2269 50.0529 23.9894 51.978 21.2393 51.978H19.0564V56H16.3579V44.1574ZM19.0564 49.6232H21.119C22.1331 49.6232 22.5112 48.8326 22.5112 48.0763C22.5112 47.32 22.1331 46.5122 21.1361 46.5122H19.0564V49.6232ZM33.2729 50.878V44.1574H35.9715V56H33.5995L29.715 49.1935V56H27.0165V44.1574H29.4916L33.2729 50.878ZM44.234 56.2063C40.5901 56.2063 37.9947 53.4218 37.9947 50.0873C37.9947 46.7184 40.6588 43.9512 44.0793 43.9512C45.9528 43.9512 47.5856 44.7418 48.6169 45.9793L46.6231 47.6466C45.9872 46.9075 45.0934 46.4606 44.0793 46.4606C42.1714 46.4606 40.7104 48.1107 40.7104 50.0873C40.7104 52.0296 42.137 53.7999 44.1652 53.7999C45.4887 53.7999 46.9497 53.0608 46.9497 51.892H43.6152V49.7092H49.8888C49.8888 54.1953 47.3966 56.2063 44.234 56.2063Z" fill="white"/>
<path d="M1 14V50C1 59.9411 9.05888 68 19 68H47C56.9411 68 65 59.9411 65 50V14" stroke="white" stroke-width="2" stroke-linecap="round" stroke-linejoin="round"/>
</svg>
