<svg width="66" height="69" viewBox="0 0 66 69" fill="none" xmlns="http://www.w3.org/2000/svg">
<path d="M32.9998 2.35703L32.9998 30.6413" stroke="white" stroke-width="2" stroke-linecap="round"/>
<path d="M23 21.2132L33 31.2132L43 21.2132" stroke="white" stroke-width="2" stroke-linecap="round"/>
<rect x="6" y="37" width="54" height="26" rx="13" stroke="white" stroke-width="2"/>
<path d="M21.5189 56.2063C18.9923 56.2063 17.2391 54.7281 17.2391 52.5452H19.9376C19.9376 53.3015 20.6939 53.8859 21.622 53.8859C22.4986 53.8859 23.169 53.439 23.169 52.6655C23.169 52.2014 22.9112 51.7717 21.8627 51.428L20.4533 50.9983C17.8407 50.2936 17.3422 48.6951 17.3422 47.5778C17.3422 45.4465 19.1642 43.9512 21.5189 43.9512C23.7877 43.9512 25.5237 45.309 25.5237 47.6122H22.8252C22.8252 46.9075 22.3955 46.3059 21.4674 46.3059C20.6251 46.3059 20.0751 46.8731 20.0751 47.5263C20.0751 47.7669 20.1439 48.2997 21.2439 48.6091L22.4815 49.0045C24.1659 49.5201 25.8847 50.3795 25.8847 52.528C25.8847 55.0718 23.6846 56.2063 21.5189 56.2063ZM31.3391 51.6514L33.3157 44.1574H36.1517L32.5423 56H30.1531L26.5436 44.1574H29.3453L31.3391 51.6514ZM43.0315 56.2063C39.3877 56.2063 36.7923 53.4218 36.7923 50.0873C36.7923 46.7184 39.4564 43.9512 42.8769 43.9512C44.7504 43.9512 46.3832 44.7418 47.4145 45.9793L45.4207 47.6466C44.7847 46.9075 43.891 46.4606 42.8769 46.4606C40.969 46.4606 39.508 48.1107 39.508 50.0873C39.508 52.0296 40.9346 53.7999 42.9628 53.7999C44.2863 53.7999 45.7473 53.0608 45.7473 51.892H42.4128V49.7092H48.6864C48.6864 54.1953 46.1942 56.2063 43.0315 56.2063Z" fill="white"/>
<path d="M1 14V50C1 59.9411 9.05888 68 19 68H47C56.9411 68 65 59.9411 65 50V14" stroke="white" stroke-width="2" stroke-linecap="round" stroke-linejoin="round"/>
</svg>
