<svg width="24" height="24" viewBox="0 0 24 24" fill="none" xmlns="http://www.w3.org/2000/svg">
<circle cx="11.9999" cy="8.46606" r="6.0506" fill="#2D2D2D" fill-opacity="0.5"/>
<circle cx="8.04925" cy="15.3353" r="6.0506" fill="#2D2D2D" fill-opacity="0.5"/>
<circle cx="15.9506" cy="15.3353" r="6.0506" fill="#2D2D2D" fill-opacity="0.5"/>
<mask id="path-4-inside-1_80_756" fill="white">
<path fill-rule="evenodd" clip-rule="evenodd" d="M17.9407 9.61959C18.0128 9.24617 18.0506 8.86053 18.0506 8.46606C18.0506 5.12441 15.3416 2.41547 12 2.41547C8.6583 2.41547 5.94936 5.12441 5.94936 8.46606C5.94936 8.86053 5.98711 9.24617 6.05919 9.61958C3.69516 10.4426 1.99866 12.6908 1.99866 15.3353C1.99866 18.6769 4.7076 21.3859 8.04925 21.3859C9.55918 21.3859 10.9399 20.8328 11.9999 19.9182C13.06 20.8328 14.4407 21.3859 15.9506 21.3859C19.2923 21.3859 22.0012 18.6769 22.0012 15.3353C22.0012 12.6908 20.3047 10.4426 17.9407 9.61959Z"/>
</mask>
<path fill-rule="evenodd" clip-rule="evenodd" d="M17.9407 9.61959C18.0128 9.24617 18.0506 8.86053 18.0506 8.46606C18.0506 5.12441 15.3416 2.41547 12 2.41547C8.6583 2.41547 5.94936 5.12441 5.94936 8.46606C5.94936 8.86053 5.98711 9.24617 6.05919 9.61958C3.69516 10.4426 1.99866 12.6908 1.99866 15.3353C1.99866 18.6769 4.7076 21.3859 8.04925 21.3859C9.55918 21.3859 10.9399 20.8328 11.9999 19.9182C13.06 20.8328 14.4407 21.3859 15.9506 21.3859C19.2923 21.3859 22.0012 18.6769 22.0012 15.3353C22.0012 12.6908 20.3047 10.4426 17.9407 9.61959Z" fill="#8E8D88"/>
<path d="M17.9407 9.61959L17.1224 9.46163L16.9857 10.1696L17.6667 10.4067L17.9407 9.61959ZM6.05919 9.61958L6.33321 10.4067L7.01418 10.1696L6.87752 9.46162L6.05919 9.61958ZM11.9999 19.9182L12.5444 19.2872L11.9999 18.8174L11.4555 19.2872L11.9999 19.9182ZM18.7591 9.77755C18.8411 9.35235 18.884 8.91382 18.884 8.46606H17.2171C17.2171 8.80724 17.1845 9.14 17.1224 9.46163L18.7591 9.77755ZM18.884 8.46606C18.884 4.66412 15.8019 1.58203 12 1.58203V3.24891C14.8813 3.24891 17.2171 5.58471 17.2171 8.46606H18.884ZM12 1.58203C8.19801 1.58203 5.11592 4.66412 5.11592 8.46606H6.7828C6.7828 5.58471 9.1186 3.24891 12 3.24891V1.58203ZM5.11592 8.46606C5.11592 8.91381 5.15878 9.35235 5.24085 9.77754L6.87752 9.46162C6.81544 9.13999 6.7828 8.80724 6.7828 8.46606H5.11592ZM5.78516 8.83248C3.09658 9.76847 1.16522 12.3253 1.16522 15.3353H2.8321C2.8321 13.0564 4.29374 11.1167 6.33321 10.4067L5.78516 8.83248ZM1.16522 15.3353C1.16522 19.1372 4.24731 22.2193 8.04925 22.2193V20.5524C5.1679 20.5524 2.8321 18.2166 2.8321 15.3353H1.16522ZM8.04925 22.2193C9.76653 22.2193 11.3388 21.5894 12.5444 20.5492L11.4555 19.2872C10.541 20.0762 9.35182 20.5524 8.04925 20.5524V22.2193ZM15.9506 20.5524C14.6481 20.5524 13.4588 20.0762 12.5444 19.2872L11.4555 20.5492C12.6611 21.5894 14.2334 22.2193 15.9506 22.2193V20.5524ZM21.1678 15.3353C21.1678 18.2166 18.832 20.5524 15.9506 20.5524V22.2193C19.7526 22.2193 22.8347 19.1372 22.8347 15.3353H21.1678ZM17.6667 10.4067C19.7062 11.1167 21.1678 13.0564 21.1678 15.3353H22.8347C22.8347 12.3253 20.9033 9.76849 18.2148 8.83249L17.6667 10.4067Z" fill="#2D2D2D" mask="url(#path-4-inside-1_80_756)"/>
</svg>
